# xmcd
#
# Track frame offsets: 
#        150
#        15866
#        31114
#        49754
#        72951
#        92159
#        111543
#        133495
#        149784
#        166675
#        180882
#        198116
#
# Disc length: 2887 seconds
#
# Revision: 0
# Processed by: cddbd v1.5.2PL0 Copyright (c) Steve Scherf et al.
# Submitted via: ExactAudioCopy v0.95b4
#
DISCID=a00b450c
DTITLE=Chickenhunters - Rockingham Rehearsals
DYEAR=2006
DGENRE=Rock
TTITLE0=Live For The Music
TTITLE1=I'm In The Mood For You
TTITLE2=Haro Times In The Land Of Plenty
TTITLE3=Turn The Light Out
TTITLE4=Poison Heart
TTITLE5=On My Way
TTITLE6=No Other Babe
TTITLE7=Can't Go Home
TTITLE8=The Hunter
TTITLE9=One Of The Boys
TTITLE10=Baby, Baby
TTITLE11=Lucy Jones
EXTD=
EXTT0=
EXTT1=
EXTT2=
EXTT3=
EXTT4=
EXTT5=
EXTT6=
EXTT7=
EXTT8=
EXTT9=
EXTT10=
EXTT11=
PLAYORDER=
